<svg width="80" height="80" viewBox="0 0 80 80" fill="none" xmlns="http://www.w3.org/2000/svg">
<path d="M40 80C62.0914 80 80 62.0914 80 40C80 17.9086 62.0914 0 40 0C17.9086 0 0 17.9086 0 40C0 62.0914 17.9086 80 40 80Z" fill="#E8F0F3"/>
<path d="M54.4001 25.6001C57.051 25.6001 59.2001 27.7491 59.2001 30.4001V49.6001C59.2001 52.2511 57.051 54.4001 54.4001 54.4001H25.6C22.9491 54.4001 20.8 52.2511 20.8 49.6001V30.4001C20.8 27.7491 22.9491 25.6001 25.6 25.6001H54.4001ZM54.4001 32.8001L40.0001 39.9714L25.6 32.8001V37.6001L40 44.8001L54.4001 37.3467V32.8001Z" fill="#4A4A4A"/>
</svg>
