<svg width="80" height="80" viewBox="0 0 80 80" fill="none" xmlns="http://www.w3.org/2000/svg">
<path d="M40 80C62.0914 80 80 62.0914 80 40C80 17.9086 62.0914 0 40 0C17.9086 0 0 17.9086 0 40C0 62.0914 17.9086 80 40 80Z" fill="#E8F0F3"/>
<path fill-rule="evenodd" clip-rule="evenodd" d="M26.7075 21.7211C26.7075 21.7211 21.5999 23.3713 21.5999 27.7082C21.5999 32.0451 25.1024 39.5518 32.773 47.2243C40.4436 54.8968 47.9484 58.4001 52.2843 58.4001C56.6201 58.4001 58.2983 52.9595 58.2983 52.9595C58.5688 52.2793 58.2798 51.4091 57.6594 51.02L50.0777 46.2642C49.4543 45.8732 48.4362 45.8671 47.8088 46.2475L44.8702 48.0288C44.0835 48.5057 42.8478 48.4415 42.1241 47.88C42.1241 47.88 39.8382 46.2432 36.7753 43.221C33.7124 40.1987 32.1308 38.0257 32.1308 38.0257C31.5645 37.3022 31.4912 36.0788 31.9686 35.2909L33.7496 32.3516C34.1312 31.7217 34.1136 30.7079 33.7135 30.0922L28.664 22.3218C28.2624 21.7039 27.38 21.4198 26.7075 21.7211Z" fill="#4A4A4A"/>
</svg>
