<svg width="640" height="640" viewBox="0 0 640 640" fill="none" xmlns="http://www.w3.org/2000/svg">
<mask id="mask0_49_1647" style="mask-type:alpha" maskUnits="userSpaceOnUse" x="0" y="0" width="640" height="640">
<rect width="640" height="640" fill="#D9D9D9"/>
</mask>
<g mask="url(#mask0_49_1647)">
<g filter="url(#filter0_d_49_1647)">
<rect width="390" height="766" transform="translate(125 120)" fill="#F5F5F5"/>
<rect width="390" height="64" transform="translate(125 120)" fill="white"/>
<path d="M291.78 143.898V146.292H293.166V143.898H291.78ZM285.066 145.5V149.082H286.38V146.742H298.656V149.082H300.024V145.5H285.066ZM287.37 148.542V149.73H297.504V148.542H287.37ZM289.728 151.242C293.22 153.906 293.292 157.974 292.014 158.892C291.654 159.198 291.258 159.234 290.772 159.234C290.358 159.234 289.746 159.216 289.08 159.144C289.314 159.522 289.44 160.08 289.476 160.44C290.034 160.476 290.61 160.494 291.042 160.494C291.852 160.494 292.356 160.368 292.968 159.882C294.822 158.586 294.732 153.564 290.736 150.612L289.728 151.242ZM292.428 148.812C290.79 150.342 287.694 151.566 284.94 152.232C285.174 152.484 285.534 153.042 285.678 153.294C288.486 152.484 291.69 151.098 293.544 149.298L292.428 148.812ZM291.15 152.25C289.818 153.348 287.1 154.626 285.066 155.184C285.336 155.454 285.624 155.922 285.786 156.228C287.856 155.49 290.556 154.086 292.05 152.862L291.15 152.25ZM292.482 154.104C290.79 155.85 287.298 157.722 284.436 158.478C284.688 158.784 284.994 159.27 285.156 159.612C288.036 158.658 291.546 156.678 293.418 154.788L292.482 154.104ZM294.138 149.01L293.022 149.244C294.102 153.762 296.226 157.416 299.772 159.036C299.988 158.658 300.402 158.136 300.708 157.866C297.288 156.498 295.128 153.06 294.138 149.01ZM298.764 150.342C297.738 151.26 295.992 152.484 294.768 153.204L295.614 154.032C296.892 153.348 298.584 152.232 299.808 151.242L298.764 150.342ZM305.478 148.11V149.244H308.862V148.11H305.478ZM306.666 152.052V153.114H309.636V152.052H306.666ZM310.824 151.836V153.024H318.6V151.836H310.824ZM311.184 155.994V157.164H318.222V155.994H311.184ZM313.974 148.848V156.624H315.234V148.848H313.974ZM308.52 148.11V148.272C307.872 149.46 306.594 151.692 305.532 153.312L306.612 153.672C307.674 152.016 308.934 149.892 309.762 148.362L308.898 148.056L308.7 148.11H308.52ZM317.034 147.66C315.666 148.218 313.128 148.65 310.986 148.92C311.148 149.19 311.292 149.64 311.346 149.91C313.596 149.676 316.278 149.244 317.988 148.578L317.034 147.66ZM306.594 154.194L305.586 154.554C306.936 159.234 309.582 160.188 313.884 160.188H318.474C318.546 159.828 318.744 159.27 318.942 158.964C318.114 158.982 314.568 158.982 313.938 158.982C310.23 158.982 307.71 158.226 306.594 154.194ZM309.204 152.052V152.268C308.646 156.138 307.026 158.424 304.65 159.576C304.902 159.774 305.334 160.242 305.514 160.512C307.998 159.216 309.762 156.66 310.428 152.25L309.69 152.016L309.456 152.052H309.204ZM310.32 143.898V146.184H311.706V143.898H310.32ZM304.182 145.554V146.778H318.582V145.554H304.182ZM303.516 145.554V150.882C303.516 153.51 303.408 157.164 302.058 159.756C302.382 159.882 302.958 160.278 303.192 160.512C304.614 157.758 304.83 153.672 304.83 150.882V145.554H303.516ZM322.56 150.63V151.89H327.042V150.63H322.56ZM326.502 150.63V150.864C326.448 154.752 326.358 156.102 326.088 156.426C325.962 156.588 325.782 156.606 325.53 156.606C325.224 156.606 324.432 156.606 323.622 156.534C323.82 156.876 323.964 157.398 324 157.794C324.882 157.83 325.692 157.848 326.16 157.794C326.664 157.74 326.952 157.614 327.24 157.29C327.618 156.786 327.726 155.274 327.816 151.206C327.816 151.026 327.816 150.63 327.816 150.63H326.502ZM331.578 144.798C332.712 145.392 334.098 146.31 334.782 146.94L335.628 146.022C334.926 145.392 333.504 144.528 332.388 143.952L331.578 144.798ZM334.152 149.676C332.802 154.014 330.264 157.308 326.61 159.252C326.898 159.522 327.402 160.08 327.6 160.35C331.29 158.172 333.972 154.698 335.502 150L334.152 149.676ZM322.668 146.94V148.272H336.6V146.94H322.668ZM321.804 146.94V151.998C321.804 154.356 321.642 157.452 320.148 159.666C320.472 159.828 321.048 160.296 321.282 160.566C322.92 158.208 323.208 154.572 323.208 152.016V146.94H321.804ZM329.274 143.916C329.346 152.538 330.966 160.314 334.638 160.314C336.006 160.314 336.51 159.432 336.762 156.354C336.402 156.228 335.898 155.922 335.592 155.616C335.484 158.01 335.25 158.946 334.746 158.946C332.406 158.946 330.642 152.196 330.678 143.916H329.274ZM342.252 145.68H350.802V147.534H342.252V145.68ZM340.902 144.582V148.65H352.224V144.582H340.902ZM341.478 152.916H351.558V154.194H341.478V152.916ZM341.478 155.148H351.558V156.444H341.478V155.148ZM341.478 150.702H351.558V151.962H341.478V150.702ZM340.128 149.694V157.434H352.944V149.694H340.128ZM343.566 157.416C342.432 158.154 340.074 159.018 338.184 159.468C338.508 159.738 338.958 160.17 339.192 160.458C341.046 159.99 343.386 159.126 344.826 158.244L343.566 157.416ZM347.958 158.352C349.866 158.91 352.314 159.846 353.646 160.476L354.816 159.504C353.412 158.91 351 158.028 349.128 157.47L347.958 158.352Z" fill="black"/>
<path fill-rule="evenodd" clip-rule="evenodd" d="M153.707 144.293C154.098 144.683 154.098 145.317 153.707 145.707L147.414 152L153.707 158.293C154.098 158.683 154.098 159.317 153.707 159.707C153.317 160.098 152.683 160.098 152.293 159.707L145.293 152.707C144.902 152.317 144.902 151.683 145.293 151.293L152.293 144.293C152.683 143.902 153.317 143.902 153.707 144.293Z" fill="black"/>
<line x1="125" y1="183.5" x2="515" y2="183.5" stroke="#DFE2E8"/>
<path d="M145.086 207.866V209.9H154.86V207.866H145.086ZM145.086 212.042V214.076H154.86V212.042H145.086ZM145.086 216.2V218.306H154.86V216.2H145.086ZM143.52 203.69V219.422H145.698V205.814H154.068V219.422H156.354V203.69H143.52ZM159.81 205.382V207.344H176.19V205.382H159.81ZM161.934 211.52V213.104H166.614V211.52H161.934ZM161.934 214.274V215.876H166.614V214.274H161.934ZM169.476 208.766V216.146H171.474V208.766H169.476ZM165.858 208.586V217.46C165.858 217.676 165.786 217.748 165.552 217.748C165.336 217.766 164.598 217.766 163.932 217.73C164.202 218.234 164.508 219.026 164.616 219.566C165.732 219.566 166.56 219.548 167.154 219.224C167.766 218.918 167.946 218.414 167.946 217.496V208.586H165.858ZM173.094 208.28V217.226C173.094 217.478 173.004 217.55 172.716 217.55C172.41 217.568 171.474 217.568 170.556 217.514C170.862 218.072 171.204 218.99 171.312 219.566C172.644 219.584 173.616 219.512 174.3 219.188C175.02 218.864 175.218 218.306 175.218 217.262V208.28H173.094ZM162.294 203.42C162.924 204.14 163.59 205.166 163.842 205.814L166.02 205.04C165.714 204.356 164.994 203.402 164.346 202.7L162.294 203.42ZM171.528 202.664C171.132 203.636 170.394 204.95 169.782 205.796L171.726 206.462C172.356 205.67 173.148 204.518 173.886 203.366L171.528 202.664ZM160.8 208.586V219.512H162.834V210.386H166.47V208.586H160.8ZM184.866 202.736V205.31H187.08V202.736H184.866ZM178.368 204.14V208.208H180.474V206.102H191.49V208.208H193.686V204.14H178.368ZM181.104 207.254V209.09H190.824V207.254H181.104ZM182.868 210.458C186.306 212.906 186.306 216.47 185.28 217.262C184.974 217.586 184.632 217.64 184.182 217.64C183.714 217.64 183.12 217.622 182.454 217.55C182.832 218.162 183.03 219.026 183.066 219.62C183.606 219.656 184.146 219.674 184.596 219.656C185.55 219.656 186.126 219.494 186.81 218.9C188.736 217.514 188.772 212.438 184.524 209.486L182.868 210.458ZM185.712 207.722C184.146 209.216 181.068 210.332 178.206 210.908C178.548 211.304 179.106 212.168 179.304 212.582C182.31 211.79 185.586 210.404 187.494 208.46L185.712 207.722ZM184.308 211.304C183.03 212.276 180.42 213.356 178.458 213.824C178.854 214.256 179.304 214.994 179.538 215.462C181.554 214.76 184.2 213.428 185.694 212.276L184.308 211.304ZM185.766 213.014C184.092 214.634 180.654 216.326 177.81 217.028C178.224 217.496 178.692 218.27 178.944 218.81C181.806 217.856 185.316 215.948 187.242 214.112L185.766 213.014ZM188.502 208.028L186.684 208.388C187.71 212.924 189.51 216.524 192.912 218.342C193.236 217.748 193.92 216.884 194.406 216.452C191.22 215.03 189.366 211.808 188.502 208.028ZM192.012 209.198C191.076 210.098 189.474 211.25 188.34 211.898L189.726 213.194C190.896 212.6 192.462 211.592 193.704 210.656L192.012 209.198ZM199.428 207.056V208.784H202.524V207.056H199.428ZM200.652 210.854V212.474H203.334V210.854H200.652ZM204.684 210.566V212.402H212.208V210.566H204.684ZM205.026 214.436V216.236H211.866V214.436H205.026ZM207.348 208.046V215.372H209.346V208.046H207.348ZM201.984 207.056V207.272C201.372 208.496 200.184 210.782 199.158 212.474L200.85 212.996C201.876 211.268 203.064 209.108 203.874 207.416L202.542 206.984L202.236 207.056H201.984ZM210.498 206.624C209.112 207.146 206.772 207.56 204.702 207.794C204.918 208.208 205.152 208.892 205.224 209.306C207.438 209.126 210.048 208.748 211.902 208.082L210.498 206.624ZM200.742 213.248L199.158 213.752C200.508 218.486 203.046 219.404 207.186 219.404H211.938C212.046 218.828 212.334 217.928 212.64 217.478C211.524 217.514 208.176 217.514 207.276 217.514C204.036 217.496 201.75 216.902 200.742 213.248ZM202.65 210.854V211.178C202.182 214.796 200.724 217.1 198.456 218.27C198.852 218.558 199.536 219.296 199.806 219.71C202.236 218.324 203.892 215.588 204.522 211.16L203.37 210.8L203.028 210.854H202.65ZM203.442 202.718V205.256H205.692V202.718H203.442ZM197.952 204.266V206.192H212.208V204.266H197.952ZM196.854 204.266V209.45C196.854 212.096 196.746 215.876 195.414 218.468C195.918 218.666 196.836 219.296 197.232 219.656C198.708 216.83 198.942 212.384 198.942 209.45V204.266H196.854ZM216.258 209.486V211.466H220.416V209.486H216.258ZM219.588 209.486V209.81C219.552 213.302 219.48 214.562 219.264 214.85C219.12 215.03 218.958 215.066 218.706 215.066C218.418 215.066 217.806 215.066 217.158 214.994C217.482 215.534 217.716 216.38 217.752 217.01C218.598 217.028 219.372 217.028 219.858 216.956C220.38 216.866 220.74 216.704 221.1 216.254C221.514 215.696 221.604 214.094 221.676 210.278C221.676 210.026 221.694 209.486 221.694 209.486H219.588ZM225.006 203.852C226.014 204.428 227.292 205.31 227.886 205.94L229.272 204.482C228.624 203.888 227.292 203.06 226.302 202.538L225.006 203.852ZM227.13 208.478C225.888 212.654 223.476 215.912 220.02 217.766C220.47 218.198 221.262 219.098 221.586 219.548C225.15 217.352 227.796 213.698 229.308 209L227.13 208.478ZM216.384 205.418V207.542H230.262V205.418H216.384ZM214.944 205.418V210.692C214.944 213.05 214.818 216.2 213.432 218.36C213.936 218.612 214.908 219.404 215.268 219.836C216.906 217.406 217.212 213.41 217.212 210.71V205.418H214.944ZM222.252 202.736C222.306 210.944 223.764 219.494 227.688 219.494C229.38 219.494 230.1 218.684 230.442 215.336C229.866 215.12 229.092 214.616 228.606 214.112C228.498 216.38 228.282 217.298 227.868 217.298C226.05 217.298 224.394 210.08 224.52 202.736H222.252ZM236.364 204.968H243.672V206.12H236.364V204.968ZM234.204 203.294V207.812H245.976V203.294H234.204ZM235.536 212.096H244.374V212.852H235.536V212.096ZM235.536 214.238H244.374V215.012H235.536V214.238ZM235.536 209.954H244.374V210.71H235.536V209.954ZM233.376 208.478V216.47H246.624V208.478H233.376ZM236.868 216.11C235.734 216.812 233.43 217.658 231.54 218.072C232.062 218.486 232.782 219.17 233.178 219.62C235.014 219.188 237.354 218.306 238.794 217.46L236.868 216.11ZM240.828 217.568C242.754 218.108 245.238 219.008 246.642 219.656L248.532 218.126C247.038 217.55 244.626 216.704 242.718 216.2L240.828 217.568Z" fill="#434343"/>
<rect x="125" y="239" width="390" height="48" fill="white"/>
<rect x="320" y="243" width="1" height="40" fill="#EEEEEE"/>
<path d="M198.088 256.248V257.288H203.592V261.208H198.024V262.248H204.76V256.248H198.088ZM197.432 256.248V266.824H198.584V256.248H197.432ZM198.088 258.76V259.688H204.008V258.76H198.088ZM196.312 266.712L196.536 267.864C198.008 267.496 199.976 267 201.864 266.504L201.768 265.464C199.752 265.944 197.688 266.44 196.312 266.712ZM201.496 261.8L200.488 262.008C201.32 264.856 202.952 266.984 205.496 267.976C205.656 267.64 206.008 267.192 206.264 266.952C203.864 266.184 202.232 264.248 201.496 261.8ZM205.064 262.152C204.328 262.824 203.048 263.768 202.104 264.312L202.856 264.936C203.816 264.424 205.032 263.608 206.024 262.872L205.064 262.152ZM195.176 261.88H191.768V263H194.008V267.544H195.176V261.88ZM195.176 267.016H194.088C193.272 267.704 192.328 268.408 191.56 268.92L192.2 270.152C193.064 269.448 193.88 268.76 194.648 268.072C195.672 269.336 197.112 269.896 199.192 269.976C200.968 270.04 204.28 270.008 206.04 269.944C206.088 269.576 206.296 269 206.424 268.712C204.536 268.84 200.936 268.888 199.192 268.824C197.352 268.744 195.928 268.2 195.176 267.016ZM192.088 256.76C193.144 257.48 194.328 258.552 194.856 259.32L195.784 258.536C195.24 257.768 194.024 256.728 192.984 256.04L192.088 256.76ZM209.384 268.104V269.288H220.68V268.104H209.384ZM214.296 255.656V268.776H215.528V255.656H214.296ZM208.792 263.64V270.296H210.008V263.64H208.792ZM220.04 263.64V270.248H221.272V263.64H220.04ZM209.416 257.096V262.616H220.632V257.096H219.384V261.448H210.6V257.096H209.416ZM225.72 261.56V262.68H229.704V261.56H225.72ZM229.224 261.56V261.768C229.176 265.224 229.096 266.424 228.856 266.712C228.744 266.856 228.584 266.872 228.36 266.872C228.088 266.872 227.384 266.872 226.664 266.808C226.84 267.112 226.968 267.576 227 267.928C227.784 267.96 228.504 267.976 228.92 267.928C229.368 267.88 229.624 267.768 229.88 267.48C230.216 267.032 230.312 265.688 230.392 262.072C230.392 261.912 230.392 261.56 230.392 261.56H229.224ZM233.736 256.376C234.744 256.904 235.976 257.72 236.584 258.28L237.336 257.464C236.712 256.904 235.448 256.136 234.456 255.624L233.736 256.376ZM236.024 260.712C234.824 264.568 232.568 267.496 229.32 269.224C229.576 269.464 230.024 269.96 230.2 270.2C233.48 268.264 235.864 265.176 237.224 261L236.024 260.712ZM225.816 258.28V259.464H238.2V258.28H225.816ZM225.048 258.28V262.776C225.048 264.872 224.904 267.624 223.576 269.592C223.864 269.736 224.376 270.152 224.584 270.392C226.04 268.296 226.296 265.064 226.296 262.792V258.28H225.048ZM231.688 255.592C231.752 263.256 233.192 270.168 236.456 270.168C237.672 270.168 238.12 269.384 238.344 266.648C238.024 266.536 237.576 266.264 237.304 265.992C237.208 268.12 237 268.952 236.552 268.952C234.472 268.952 232.904 262.952 232.936 255.592H231.688ZM243.224 257.16H250.824V258.808H243.224V257.16ZM242.024 256.184V259.8H252.088V256.184H242.024ZM242.536 263.592H251.496V264.728H242.536V263.592ZM242.536 265.576H251.496V266.728H242.536V265.576ZM242.536 261.624H251.496V262.744H242.536V261.624ZM241.336 260.728V267.608H252.728V260.728H241.336ZM244.392 267.592C243.384 268.248 241.288 269.016 239.608 269.416C239.896 269.656 240.296 270.04 240.504 270.296C242.152 269.88 244.232 269.112 245.512 268.328L244.392 267.592ZM248.296 268.424C249.992 268.92 252.168 269.752 253.352 270.312L254.392 269.448C253.144 268.92 251 268.136 249.336 267.64L248.296 268.424Z" fill="#434343"/>
<path d="M395.68 267.704V268.872H400.032V267.704H395.68ZM386.848 258.6V259.768H392.992V258.6H386.848ZM395.136 257.56V270.04H396.304V258.712H399.392V269.928H400.608V257.56H395.136ZM392.672 258.6V258.888C392.56 265.736 392.416 268.104 392.048 268.6C391.904 268.808 391.76 268.856 391.52 268.84C391.216 268.84 390.528 268.84 389.776 268.776C389.984 269.112 390.112 269.64 390.128 269.992C390.848 270.04 391.584 270.04 392.032 269.976C392.512 269.928 392.8 269.784 393.088 269.368C393.6 268.664 393.712 266.328 393.84 259.208C393.84 259.048 393.84 258.6 393.84 258.6H392.672ZM389.12 255.784C389.104 261.384 389.12 266.664 386.448 269.48C386.752 269.656 387.168 270.024 387.376 270.296C390.192 267.24 390.272 261.688 390.288 255.784H389.12ZM405.632 256.536V257.752H410.16V256.536H405.632ZM409.552 256.536C409.552 259.544 410.08 266.36 416.48 270.232C416.704 269.944 417.184 269.432 417.456 269.224C411.136 265.48 410.784 259.4 410.784 256.536H409.552ZM409.104 259.672C408.128 264.2 406.128 267.432 402.576 269.288C402.896 269.512 403.44 270.008 403.664 270.264C407.2 268.184 409.312 264.808 410.464 259.928L409.104 259.672ZM420.72 261.56V262.68H424.704V261.56H420.72ZM424.224 261.56V261.768C424.176 265.224 424.096 266.424 423.856 266.712C423.744 266.856 423.584 266.872 423.36 266.872C423.088 266.872 422.384 266.872 421.664 266.808C421.84 267.112 421.968 267.576 422 267.928C422.784 267.96 423.504 267.976 423.92 267.928C424.368 267.88 424.624 267.768 424.88 267.48C425.216 267.032 425.312 265.688 425.392 262.072C425.392 261.912 425.392 261.56 425.392 261.56H424.224ZM428.736 256.376C429.744 256.904 430.976 257.72 431.584 258.28L432.336 257.464C431.712 256.904 430.448 256.136 429.456 255.624L428.736 256.376ZM431.024 260.712C429.824 264.568 427.568 267.496 424.32 269.224C424.576 269.464 425.024 269.96 425.2 270.2C428.48 268.264 430.864 265.176 432.224 261L431.024 260.712ZM420.816 258.28V259.464H433.2V258.28H420.816ZM420.048 258.28V262.776C420.048 264.872 419.904 267.624 418.576 269.592C418.864 269.736 419.376 270.152 419.584 270.392C421.04 268.296 421.296 265.064 421.296 262.792V258.28H420.048ZM426.688 255.592C426.752 263.256 428.192 270.168 431.456 270.168C432.672 270.168 433.12 269.384 433.344 266.648C433.024 266.536 432.576 266.264 432.304 265.992C432.208 268.12 432 268.952 431.552 268.952C429.472 268.952 427.904 262.952 427.936 255.592H426.688ZM438.224 257.16H445.824V258.808H438.224V257.16ZM437.024 256.184V259.8H447.088V256.184H437.024ZM437.536 263.592H446.496V264.728H437.536V263.592ZM437.536 265.576H446.496V266.728H437.536V265.576ZM437.536 261.624H446.496V262.744H437.536V261.624ZM436.336 260.728V267.608H447.728V260.728H436.336ZM439.392 267.592C438.384 268.248 436.288 269.016 434.608 269.416C434.896 269.656 435.296 270.04 435.504 270.296C437.152 269.88 439.232 269.112 440.512 268.328L439.392 267.592ZM443.296 268.424C444.992 268.92 447.168 269.752 448.352 270.312L449.392 269.448C448.144 268.92 446 268.136 444.336 267.64L443.296 268.424Z" fill="#434343"/>
<rect x="125" y="303" width="390" height="48" fill="white"/>
<rect x="125" y="350" width="390" height="1" fill="#F0F0F0"/>
<path d="M176.632 322.76V323.944H189.352V322.76H176.632ZM177.368 327.464V328.632H188.68V327.464H177.368ZM175.896 332.568V333.752H190.152V332.568H175.896ZM182.344 323.704V333.176H183.64V323.704H182.344ZM180.968 320.296C182.024 321.08 183.288 322.216 183.864 322.968L184.904 322.216C184.28 321.448 182.984 320.36 181.944 319.624L180.968 320.296ZM191.72 328.312V329.32H206.28V328.312H191.72ZM192.104 320.264V321.32H205.88V320.264H192.104ZM197.272 326.632C196.28 328.2 194.792 330.344 193.768 331.64L194.904 332.024C195.928 330.712 197.4 328.616 198.44 326.952L197.272 326.632ZM202.072 328.664C200.792 331.784 197.656 332.92 191.944 333.224C192.136 333.496 192.328 333.928 192.408 334.28C198.408 333.832 201.816 332.52 203.224 329L202.072 328.664ZM194.632 331.48C198.696 332.232 202.616 333.32 205.064 334.328L205.784 333.352C203.304 332.376 199.192 331.304 195.24 330.6L194.632 331.48ZM196.472 320.664V326.248H197.608V320.664H196.472ZM200.2 320.664V326.248H201.336V320.664H200.2ZM194.024 323.672H204.008V325.848H194.024V323.672ZM192.904 322.696V326.84H205.208V322.696H192.904ZM210.152 319.592V334.296H211.192V319.592H210.152ZM208.056 322.616V331H208.984V323.688H212.92V322.616H208.056ZM212.424 322.616V329.64C212.424 329.768 212.392 329.8 212.296 329.816C212.168 329.816 211.864 329.816 211.48 329.8C211.624 330.088 211.784 330.552 211.8 330.856C212.36 330.856 212.728 330.824 213.016 330.632C213.288 330.44 213.352 330.104 213.352 329.672V322.616H212.424ZM215.256 320.264V321.256H221.576V320.264H215.256ZM215.272 322.488V323.432H221.064V322.488H215.272ZM215.272 324.696V325.64H221.064V324.696H215.272ZM213.544 326.888V327.912H222.28V326.888H213.544ZM213.208 333L213.464 334.104C214.968 333.832 216.984 333.48 218.936 333.128L218.856 332.12C216.776 332.456 214.632 332.808 213.208 333ZM218.168 327.208L217.176 327.368C217.832 330.696 219.208 333.16 221.8 334.296C221.96 333.976 222.328 333.496 222.584 333.256C220.12 332.344 218.76 330.104 218.168 327.208ZM221.432 328.28C220.728 328.984 219.48 329.928 218.632 330.488L219.32 331.176C220.2 330.616 221.384 329.8 222.248 329L221.432 328.28ZM214.76 320.264V327.4H215.896V320.264H214.76ZM214.744 327.352V333.224L215.88 333.08V327.352H214.744ZM225.464 321.176H227.848V323.608H225.464V321.176ZM224.376 320.168V324.632H228.984V320.168H224.376ZM223.64 325.752V326.808H229.672V325.752H223.64ZM225.144 326.232C224.904 327.448 224.536 329.048 224.216 330.072L225.304 330.28C225.592 329.224 225.976 327.56 226.248 326.232H225.144ZM225.272 328.232L225 329.256H228.248V328.232H225.272ZM227.8 328.232V328.424C227.608 331.576 227.368 332.808 227.048 333.128C226.92 333.272 226.76 333.304 226.52 333.288C226.264 333.288 225.64 333.288 224.952 333.224C225.144 333.512 225.272 333.976 225.288 334.28C225.96 334.312 226.616 334.312 226.968 334.296C227.4 334.248 227.672 334.152 227.944 333.864C228.392 333.384 228.632 332.072 228.888 328.728C228.904 328.552 228.92 328.232 228.92 328.232H227.8ZM233.832 320.664V321.656H237.656V320.664H233.832ZM230.616 322.744V323.72H237.672V322.744H230.616ZM233.256 319.56V323.256H234.408V319.56H233.256ZM230.104 322.744V326.84C230.104 328.904 229.96 331.688 228.568 333.72C228.84 333.832 229.288 334.168 229.48 334.376C230.968 332.248 231.192 329.08 231.192 326.84V322.744H230.104ZM231.576 325.384L231.688 326.264L236.424 325.752L236.312 324.92L231.576 325.384ZM233.32 323.832V326.696C233.32 327.72 233.608 327.976 234.76 327.976C235 327.976 236.28 327.976 236.52 327.976C237.384 327.976 237.688 327.656 237.784 326.424C237.496 326.36 237.08 326.216 236.856 326.072C236.808 326.968 236.744 327.08 236.392 327.08C236.12 327.08 235.096 327.08 234.904 327.08C234.456 327.08 234.392 327.032 234.392 326.696V323.832H233.32ZM237.336 322.744V322.904C237.24 323.752 237.048 324.84 236.888 325.512L237.816 325.736C238.008 325.016 238.264 323.864 238.456 322.888L237.704 322.696L237.512 322.744H237.336ZM232.488 328.68C232.392 331.032 232.04 332.584 230.296 333.48C230.536 333.672 230.856 334.072 231 334.344C232.952 333.272 233.416 331.4 233.528 328.68H232.488ZM234.84 328.664V332.584C234.84 333.32 234.904 333.56 235.16 333.784C235.4 333.976 235.768 334.04 236.12 334.04C236.296 334.04 236.824 334.04 237.032 334.04C237.336 334.04 237.688 333.976 237.88 333.88C238.12 333.736 238.296 333.56 238.392 333.256C238.472 332.984 238.552 332.184 238.568 331.432C238.264 331.336 237.864 331.128 237.656 330.936C237.656 331.656 237.64 332.28 237.592 332.536C237.56 332.712 237.48 332.824 237.384 332.872C237.304 332.92 237.096 332.952 236.952 332.952C236.76 332.952 236.504 332.952 236.376 332.952C236.216 332.952 236.088 332.92 235.992 332.872C235.912 332.84 235.88 332.728 235.88 332.616V328.664H234.84ZM248.605 321.24V322.296H257.869V321.24H248.605ZM252.589 319.576V334.28H253.757V319.576H252.589ZM254.253 328.472L253.389 328.76C254.253 330.648 255.869 332.52 257.485 333.464C257.661 333.176 258.029 332.744 258.285 332.52C256.701 331.752 255.085 330.12 254.253 328.472ZM250.333 326.776H256.077V328.2H250.333V326.776ZM250.333 324.504H256.077V325.912H250.333V324.504ZM249.261 323.608V329.112H257.197V323.608H249.261ZM252.045 328.488C251.133 330.152 249.341 331.816 247.629 332.6C247.901 332.84 248.269 333.256 248.445 333.544C250.189 332.6 252.013 330.76 253.005 328.824L252.045 328.488ZM244.061 320.264V334.296H245.149V321.352H247.837V320.264H244.061ZM247.469 320.264V320.584C247.133 321.688 246.541 323.592 245.965 325.048C247.117 326.296 247.405 327.384 247.405 328.248C247.405 328.728 247.325 329.16 247.069 329.336C246.941 329.432 246.765 329.48 246.573 329.48C246.317 329.512 246.013 329.496 245.645 329.464C245.821 329.768 245.917 330.232 245.933 330.52C246.301 330.536 246.701 330.536 247.021 330.504C247.341 330.456 247.629 330.36 247.853 330.216C248.301 329.896 248.477 329.224 248.477 328.36C248.477 327.368 248.221 326.248 247.037 324.92C247.581 323.64 248.173 321.992 248.637 320.68L247.869 320.216L247.677 320.264H247.469ZM259.517 320.856V321.976H264.957V320.856H259.517ZM259.741 325.4V326.536H264.637V325.4H259.741ZM259.293 331.032L259.565 332.2C261.117 331.8 263.229 331.272 265.197 330.728L265.101 329.64C262.957 330.168 260.749 330.712 259.293 331.032ZM266.461 324.376V325.448H271.821V324.376H266.461ZM265.053 327.144V328.248H272.445V327.144H265.053ZM267.773 327.528V334.296H268.957V327.528H267.773ZM269.101 320.792C270.093 322.536 271.885 324.504 273.613 325.688C273.789 325.352 274.061 324.92 274.301 324.616C272.573 323.592 270.717 321.592 269.613 319.608H268.493C267.661 321.432 265.901 323.56 264.045 324.744C264.269 325.016 264.557 325.432 264.701 325.736C266.541 324.472 268.221 322.488 269.101 320.792ZM271.933 327.144V331.544C271.933 331.736 271.869 331.784 271.645 331.784C271.437 331.8 270.685 331.816 269.853 331.784C270.013 332.088 270.205 332.584 270.253 332.904C271.373 332.904 272.093 332.888 272.541 332.696C272.973 332.504 273.085 332.152 273.085 331.56V327.144H271.933ZM261.613 321.304V330.968L262.781 330.728V321.304H261.613Z" fill="#434343"/>
<circle cx="151" cy="327" r="10" fill="#FBC338"/>
<path d="M151 322L152.469 324.977L155.755 325.455L153.378 327.773L153.939 331.045L151 329.5L148.061 331.045L148.622 327.773L146.245 325.455L149.531 324.977L151 322Z" fill="white"/>
<rect x="125" y="351" width="390" height="48" fill="white"/>
<rect x="125" y="398" width="390" height="1" fill="#F0F0F0"/>
<path d="M182.36 367.576V369.704H183.592V367.576H182.36ZM176.392 369V372.184H177.56V370.104H188.472V372.184H189.688V369H176.392ZM178.44 371.704V372.76H187.448V371.704H178.44ZM180.536 374.104C183.64 376.472 183.704 380.088 182.568 380.904C182.248 381.176 181.896 381.208 181.464 381.208C181.096 381.208 180.552 381.192 179.96 381.128C180.168 381.464 180.28 381.96 180.312 382.28C180.808 382.312 181.32 382.328 181.704 382.328C182.424 382.328 182.872 382.216 183.416 381.784C185.064 380.632 184.984 376.168 181.432 373.544L180.536 374.104ZM182.936 371.944C181.48 373.304 178.728 374.392 176.28 374.984C176.488 375.208 176.808 375.704 176.936 375.928C179.432 375.208 182.28 373.976 183.928 372.376L182.936 371.944ZM181.8 375C180.616 375.976 178.2 377.112 176.392 377.608C176.632 377.848 176.888 378.264 177.032 378.536C178.872 377.88 181.272 376.632 182.6 375.544L181.8 375ZM182.984 376.648C181.48 378.2 178.376 379.864 175.832 380.536C176.056 380.808 176.328 381.24 176.472 381.544C179.032 380.696 182.152 378.936 183.816 377.256L182.984 376.648ZM184.456 372.12L183.464 372.328C184.424 376.344 186.312 379.592 189.464 381.032C189.656 380.696 190.024 380.232 190.296 379.992C187.256 378.776 185.336 375.72 184.456 372.12ZM188.568 373.304C187.656 374.12 186.104 375.208 185.016 375.848L185.768 376.584C186.904 375.976 188.408 374.984 189.496 374.104L188.568 373.304ZM194.536 371.32V372.328H197.544V371.32H194.536ZM195.592 374.824V375.768H198.232V374.824H195.592ZM199.288 374.632V375.688H206.2V374.632H199.288ZM199.608 378.328V379.368H205.864V378.328H199.608ZM202.088 371.976V378.888H203.208V371.976H202.088ZM197.24 371.32V371.464C196.664 372.52 195.528 374.504 194.584 375.944L195.544 376.264C196.488 374.792 197.608 372.904 198.344 371.544L197.576 371.272L197.4 371.32H197.24ZM204.808 370.92C203.592 371.416 201.336 371.8 199.432 372.04C199.576 372.28 199.704 372.68 199.752 372.92C201.752 372.712 204.136 372.328 205.656 371.736L204.808 370.92ZM195.528 376.728L194.632 377.048C195.832 381.208 198.184 382.056 202.008 382.056H206.088C206.152 381.736 206.328 381.24 206.504 380.968C205.768 380.984 202.616 380.984 202.056 380.984C198.76 380.984 196.52 380.312 195.528 376.728ZM197.848 374.824V375.016C197.352 378.456 195.912 380.488 193.8 381.512C194.024 381.688 194.408 382.104 194.568 382.344C196.776 381.192 198.344 378.92 198.936 375L198.28 374.792L198.072 374.824H197.848ZM198.84 367.576V369.608H200.072V367.576H198.84ZM193.384 369.048V370.136H206.184V369.048H193.384ZM192.792 369.048V373.784C192.792 376.12 192.696 379.368 191.496 381.672C191.784 381.784 192.296 382.136 192.504 382.344C193.768 379.896 193.96 376.264 193.96 373.784V369.048H192.792ZM209.72 373.56V374.68H213.704V373.56H209.72ZM213.224 373.56V373.768C213.176 377.224 213.096 378.424 212.856 378.712C212.744 378.856 212.584 378.872 212.36 378.872C212.088 378.872 211.384 378.872 210.664 378.808C210.84 379.112 210.968 379.576 211 379.928C211.784 379.96 212.504 379.976 212.92 379.928C213.368 379.88 213.624 379.768 213.88 379.48C214.216 379.032 214.312 377.688 214.392 374.072C214.392 373.912 214.392 373.56 214.392 373.56H213.224ZM217.736 368.376C218.744 368.904 219.976 369.72 220.584 370.28L221.336 369.464C220.712 368.904 219.448 368.136 218.456 367.624L217.736 368.376ZM220.024 372.712C218.824 376.568 216.568 379.496 213.32 381.224C213.576 381.464 214.024 381.96 214.2 382.2C217.48 380.264 219.864 377.176 221.224 373L220.024 372.712ZM209.816 370.28V371.464H222.2V370.28H209.816ZM209.048 370.28V374.776C209.048 376.872 208.904 379.624 207.576 381.592C207.864 381.736 208.376 382.152 208.584 382.392C210.04 380.296 210.296 377.064 210.296 374.792V370.28H209.048ZM215.688 367.592C215.752 375.256 217.192 382.168 220.456 382.168C221.672 382.168 222.12 381.384 222.344 378.648C222.024 378.536 221.576 378.264 221.304 377.992C221.208 380.12 221 380.952 220.552 380.952C218.472 380.952 216.904 374.952 216.936 367.592H215.688ZM227.224 369.16H234.824V370.808H227.224V369.16ZM226.024 368.184V371.8H236.088V368.184H226.024ZM226.536 375.592H235.496V376.728H226.536V375.592ZM226.536 377.576H235.496V378.728H226.536V377.576ZM226.536 373.624H235.496V374.744H226.536V373.624ZM225.336 372.728V379.608H236.728V372.728H225.336ZM228.392 379.592C227.384 380.248 225.288 381.016 223.608 381.416C223.896 381.656 224.296 382.04 224.504 382.296C226.152 381.88 228.232 381.112 229.512 380.328L228.392 379.592ZM232.296 380.424C233.992 380.92 236.168 381.752 237.352 382.312L238.392 381.448C237.144 380.92 235 380.136 233.336 379.64L232.296 380.424ZM250.669 371V372.152H257.805V371H250.669ZM253.565 367.56V382.264H254.749V367.56H253.565ZM253.485 371.512C252.797 374.264 251.197 377.24 249.533 378.84C249.773 379.112 250.109 379.576 250.253 379.912C252.013 378.184 253.613 374.84 254.397 371.816L253.485 371.512ZM254.893 371.512L254.029 371.752C254.733 374.696 255.997 377.88 257.373 379.608C257.597 379.288 258.013 378.872 258.301 378.664C256.893 377.16 255.581 374.232 254.893 371.512ZM243.645 371V372.152H249.981V371H243.645ZM246.525 367.56V382.264H247.693V367.56H246.525ZM246.429 371.704C245.869 374.04 244.541 376.76 243.245 378.2C243.453 378.488 243.757 378.984 243.901 379.32C245.261 377.72 246.605 374.616 247.245 371.992L246.429 371.704ZM247.661 372.472L247.005 373.096C247.581 373.784 249.037 375.656 249.517 376.488L250.317 375.448C249.917 374.968 248.157 372.936 247.661 372.472ZM259.613 373.88V375.048H273.965V373.88H259.613ZM266.093 369.72V382.28H267.373V369.72H266.093ZM271.469 367.768C268.925 368.568 264.365 369.208 260.477 369.576C260.605 369.864 260.765 370.344 260.797 370.632C264.749 370.296 269.389 369.672 272.381 368.792L271.469 367.768Z" fill="#434343"/>
<rect x="125" y="399" width="390" height="48" fill="white"/>
<rect x="125" y="446" width="390" height="1" fill="#F0F0F0"/>
<path d="M182.36 415.576V417.704H183.592V415.576H182.36ZM176.392 417V420.184H177.56V418.104H188.472V420.184H189.688V417H176.392ZM178.44 419.704V420.76H187.448V419.704H178.44ZM180.536 422.104C183.64 424.472 183.704 428.088 182.568 428.904C182.248 429.176 181.896 429.208 181.464 429.208C181.096 429.208 180.552 429.192 179.96 429.128C180.168 429.464 180.28 429.96 180.312 430.28C180.808 430.312 181.32 430.328 181.704 430.328C182.424 430.328 182.872 430.216 183.416 429.784C185.064 428.632 184.984 424.168 181.432 421.544L180.536 422.104ZM182.936 419.944C181.48 421.304 178.728 422.392 176.28 422.984C176.488 423.208 176.808 423.704 176.936 423.928C179.432 423.208 182.28 421.976 183.928 420.376L182.936 419.944ZM181.8 423C180.616 423.976 178.2 425.112 176.392 425.608C176.632 425.848 176.888 426.264 177.032 426.536C178.872 425.88 181.272 424.632 182.6 423.544L181.8 423ZM182.984 424.648C181.48 426.2 178.376 427.864 175.832 428.536C176.056 428.808 176.328 429.24 176.472 429.544C179.032 428.696 182.152 426.936 183.816 425.256L182.984 424.648ZM184.456 420.12L183.464 420.328C184.424 424.344 186.312 427.592 189.464 429.032C189.656 428.696 190.024 428.232 190.296 427.992C187.256 426.776 185.336 423.72 184.456 420.12ZM188.568 421.304C187.656 422.12 186.104 423.208 185.016 423.848L185.768 424.584C186.904 423.976 188.408 422.984 189.496 422.104L188.568 421.304ZM194.536 419.32V420.328H197.544V419.32H194.536ZM195.592 422.824V423.768H198.232V422.824H195.592ZM199.288 422.632V423.688H206.2V422.632H199.288ZM199.608 426.328V427.368H205.864V426.328H199.608ZM202.088 419.976V426.888H203.208V419.976H202.088ZM197.24 419.32V419.464C196.664 420.52 195.528 422.504 194.584 423.944L195.544 424.264C196.488 422.792 197.608 420.904 198.344 419.544L197.576 419.272L197.4 419.32H197.24ZM204.808 418.92C203.592 419.416 201.336 419.8 199.432 420.04C199.576 420.28 199.704 420.68 199.752 420.92C201.752 420.712 204.136 420.328 205.656 419.736L204.808 418.92ZM195.528 424.728L194.632 425.048C195.832 429.208 198.184 430.056 202.008 430.056H206.088C206.152 429.736 206.328 429.24 206.504 428.968C205.768 428.984 202.616 428.984 202.056 428.984C198.76 428.984 196.52 428.312 195.528 424.728ZM197.848 422.824V423.016C197.352 426.456 195.912 428.488 193.8 429.512C194.024 429.688 194.408 430.104 194.568 430.344C196.776 429.192 198.344 426.92 198.936 423L198.28 422.792L198.072 422.824H197.848ZM198.84 415.576V417.608H200.072V415.576H198.84ZM193.384 417.048V418.136H206.184V417.048H193.384ZM192.792 417.048V421.784C192.792 424.12 192.696 427.368 191.496 429.672C191.784 429.784 192.296 430.136 192.504 430.344C193.768 427.896 193.96 424.264 193.96 421.784V417.048H192.792ZM209.72 421.56V422.68H213.704V421.56H209.72ZM213.224 421.56V421.768C213.176 425.224 213.096 426.424 212.856 426.712C212.744 426.856 212.584 426.872 212.36 426.872C212.088 426.872 211.384 426.872 210.664 426.808C210.84 427.112 210.968 427.576 211 427.928C211.784 427.96 212.504 427.976 212.92 427.928C213.368 427.88 213.624 427.768 213.88 427.48C214.216 427.032 214.312 425.688 214.392 422.072C214.392 421.912 214.392 421.56 214.392 421.56H213.224ZM217.736 416.376C218.744 416.904 219.976 417.72 220.584 418.28L221.336 417.464C220.712 416.904 219.448 416.136 218.456 415.624L217.736 416.376ZM220.024 420.712C218.824 424.568 216.568 427.496 213.32 429.224C213.576 429.464 214.024 429.96 214.2 430.2C217.48 428.264 219.864 425.176 221.224 421L220.024 420.712ZM209.816 418.28V419.464H222.2V418.28H209.816ZM209.048 418.28V422.776C209.048 424.872 208.904 427.624 207.576 429.592C207.864 429.736 208.376 430.152 208.584 430.392C210.04 428.296 210.296 425.064 210.296 422.792V418.28H209.048ZM215.688 415.592C215.752 423.256 217.192 430.168 220.456 430.168C221.672 430.168 222.12 429.384 222.344 426.648C222.024 426.536 221.576 426.264 221.304 425.992C221.208 428.12 221 428.952 220.552 428.952C218.472 428.952 216.904 422.952 216.936 415.592H215.688ZM227.224 417.16H234.824V418.808H227.224V417.16ZM226.024 416.184V419.8H236.088V416.184H226.024ZM226.536 423.592H235.496V424.728H226.536V423.592ZM226.536 425.576H235.496V426.728H226.536V425.576ZM226.536 421.624H235.496V422.744H226.536V421.624ZM225.336 420.728V427.608H236.728V420.728H225.336ZM228.392 427.592C227.384 428.248 225.288 429.016 223.608 429.416C223.896 429.656 224.296 430.04 224.504 430.296C226.152 429.88 228.232 429.112 229.512 428.328L228.392 427.592ZM232.296 428.424C233.992 428.92 236.168 429.752 237.352 430.312L238.392 429.448C237.144 428.92 235 428.136 233.336 427.64L232.296 428.424ZM250.669 419V420.152H257.805V419H250.669ZM253.565 415.56V430.264H254.749V415.56H253.565ZM253.485 419.512C252.797 422.264 251.197 425.24 249.533 426.84C249.773 427.112 250.109 427.576 250.253 427.912C252.013 426.184 253.613 422.84 254.397 419.816L253.485 419.512ZM254.893 419.512L254.029 419.752C254.733 422.696 255.997 425.88 257.373 427.608C257.597 427.288 258.013 426.872 258.301 426.664C256.893 425.16 255.581 422.232 254.893 419.512ZM243.645 419V420.152H249.981V419H243.645ZM246.525 415.56V430.264H247.693V415.56H246.525ZM246.429 419.704C245.869 422.04 244.541 424.76 243.245 426.2C243.453 426.488 243.757 426.984 243.901 427.32C245.261 425.72 246.605 422.616 247.245 419.992L246.429 419.704ZM247.661 420.472L247.005 421.096C247.581 421.784 249.037 423.656 249.517 424.488L250.317 423.448C249.917 422.968 248.157 420.936 247.661 420.472ZM259.661 421.976V423.112H264.205V421.976H259.661ZM261.741 418.872V420.024H266.877V418.872H261.741ZM267.341 419.592L266.317 419.816C267.501 424.264 269.709 427.672 273.373 429.24C273.549 428.92 273.933 428.44 274.205 428.2C270.637 426.856 268.397 423.592 267.341 419.592ZM272.541 420.008C271.485 421.224 269.645 422.824 268.285 423.784L269.133 424.472C270.525 423.544 272.301 422.056 273.645 420.792L272.541 420.008ZM266.173 418.872V428.728C266.173 428.984 266.093 429.064 265.805 429.08C265.533 429.096 264.589 429.096 263.613 429.048C263.805 429.4 263.981 429.928 264.045 430.264C265.373 430.264 266.237 430.248 266.765 430.056C267.277 429.848 267.453 429.48 267.453 428.744V418.872H266.173ZM263.213 416.568C265.229 417.096 267.805 418.04 269.133 418.776L269.741 417.656C268.381 416.936 265.773 416.04 263.805 415.592L263.213 416.568ZM263.757 421.976V422.216C263.069 425 261.341 427.208 259.325 428.36C259.613 428.568 260.093 429.016 260.285 429.288C262.333 427.96 264.189 425.56 265.021 422.264L264.221 421.928L263.997 421.976H263.757Z" fill="#434343"/>
</g>
</g>
<defs>
<filter id="filter0_d_49_1647" x="113" y="108" width="430" height="806" filterUnits="userSpaceOnUse" color-interpolation-filters="sRGB">
<feFlood flood-opacity="0" result="BackgroundImageFix"/>
<feColorMatrix in="SourceAlpha" type="matrix" values="0 0 0 0 0 0 0 0 0 0 0 0 0 0 0 0 0 0 127 0" result="hardAlpha"/>
<feOffset dx="8" dy="8"/>
<feGaussianBlur stdDeviation="10"/>
<feComposite in2="hardAlpha" operator="out"/>
<feColorMatrix type="matrix" values="0 0 0 0 0 0 0 0 0 0 0 0 0 0 0 0 0 0 0.05 0"/>
<feBlend mode="normal" in2="BackgroundImageFix" result="effect1_dropShadow_49_1647"/>
<feBlend mode="normal" in="SourceGraphic" in2="effect1_dropShadow_49_1647" result="shape"/>
</filter>
</defs>
</svg>
