<svg width="640" height="640" viewBox="0 0 640 640" fill="none" xmlns="http://www.w3.org/2000/svg">
<mask id="mask0_49_1747" style="mask-type:alpha" maskUnits="userSpaceOnUse" x="0" y="0" width="640" height="640">
<rect width="640" height="640" fill="#D9D9D9"/>
</mask>
<g mask="url(#mask0_49_1747)">
<g filter="url(#filter0_d_49_1747)">
<rect width="390" height="766" transform="translate(125 120)" fill="#F5F5F5"/>
<rect width="390" height="64" transform="translate(125 120)" fill="white"/>
<path d="M314.19 154.554V158.658C314.19 159.936 314.478 160.314 315.738 160.314C315.99 160.314 317.16 160.314 317.43 160.314C318.456 160.314 318.798 159.756 318.924 157.488C318.582 157.398 318.06 157.218 317.808 157.002C317.754 158.91 317.682 159.162 317.268 159.162C317.034 159.162 316.098 159.162 315.918 159.162C315.504 159.162 315.432 159.09 315.432 158.658V154.554H314.19ZM311.256 148.884H316.26V150.792H311.256V148.884ZM311.256 151.854H316.26V153.78H311.256V151.854ZM311.256 145.932H316.26V147.804H311.256V145.932ZM309.996 144.816V154.896H317.556V144.816H309.996ZM311.472 154.518C311.22 156.822 310.554 158.514 307.872 159.414C308.142 159.666 308.52 160.152 308.664 160.458C311.652 159.324 312.48 157.326 312.786 154.518H311.472ZM302.49 147.264V148.506H308.106V147.264H302.49ZM305.118 152.646V160.44H306.432V151.062L305.118 152.646ZM305.118 143.898V147.876H306.432V143.898H305.118ZM306.432 151.242L305.64 151.962C306.36 152.61 307.998 154.338 308.61 155.148L309.438 154.014C308.97 153.546 307.008 151.71 306.432 151.242ZM307.656 147.264V147.552C306.612 150.288 304.164 153.024 301.842 154.464C302.058 154.698 302.4 155.328 302.526 155.67C304.992 154.014 307.638 151.008 308.916 147.714L308.16 147.21L307.926 147.264H307.656ZM327.114 144.798V146.094H334.26V144.798H327.114ZM326.934 150.936V152.214H332.964V150.936H326.934ZM329.382 145.536V149.892C329.382 153.06 329.112 156.696 326.232 159.558C326.556 159.756 327.024 160.206 327.24 160.494C330.354 157.398 330.678 153.42 330.678 149.892V145.536H329.382ZM333.576 144.798C333.594 153.114 333.414 159.702 335.538 160.368C336.456 160.728 337.05 160.098 337.266 157.11C337.05 156.93 336.672 156.48 336.42 156.156C336.366 157.668 336.222 159 336.078 158.964C334.818 158.676 334.872 152.466 334.962 144.798H333.576ZM321.03 149.334V150.414H326.304V149.334H321.03ZM321.084 144.528V145.608H326.232V144.528H321.084ZM321.03 151.746V152.826H326.304V151.746H321.03ZM320.184 146.886V148.002H326.898V146.886H320.184ZM321.624 154.176V155.292H325.116V158.298H321.624V159.432H326.304V154.176H321.624ZM321.012 154.176V160.26H322.182V154.176H321.012Z" fill="black"/>
<path fill-rule="evenodd" clip-rule="evenodd" d="M153.707 144.293C154.098 144.683 154.098 145.317 153.707 145.707L147.414 152L153.707 158.293C154.098 158.683 154.098 159.317 153.707 159.707C153.317 160.098 152.683 160.098 152.293 159.707L145.293 152.707C144.902 152.317 144.902 151.683 145.293 151.293L152.293 144.293C152.683 143.902 153.317 143.902 153.707 144.293Z" fill="black"/>
<line x1="125" y1="183.5" x2="515" y2="183.5" stroke="#DFE2E8"/>
<path d="M273.08 315.7V323.71H276.8V315.7H273.08ZM264.32 317.14V320.11H285.95V317.14H264.32ZM261.29 321.82V324.88H288.74V321.82H261.29ZM262.4 326.65V329.71H287.84V326.65H262.4ZM279.02 324.46V332.89C279.02 333.28 278.87 333.37 278.36 333.37C277.85 333.4 276.08 333.4 274.55 333.34C275.06 334.24 275.66 335.68 275.84 336.7C278.09 336.7 279.8 336.64 281.06 336.16C282.35 335.62 282.74 334.72 282.74 332.98V324.46H279.02ZM265.1 310.69V313.63H274.67V310.69H265.1ZM277.01 310.69V313.63H288.56V310.69H277.01ZM265.34 308.29C264.29 310.84 262.49 313.42 260.51 315.07C261.35 315.52 262.82 316.48 263.51 317.08C265.46 315.19 267.5 312.19 268.76 309.22L265.34 308.29ZM277.46 308.29C276.62 310.72 275 313.15 273.14 314.65C273.95 315.1 275.42 316.06 276.11 316.66C277.97 314.89 279.83 312.04 280.91 309.13L277.46 308.29ZM266.24 312.97C266.96 314.17 267.74 315.79 268.01 316.78L271.1 315.52C270.77 314.5 269.9 312.97 269.15 311.83L266.24 312.97ZM279.32 313.03C280.22 314.2 281.24 315.82 281.66 316.81L284.72 315.55C284.24 314.5 283.13 312.97 282.23 311.86L279.32 313.03ZM266.39 330.94C268.1 332.23 270.08 334.09 270.92 335.47L273.71 333.22C272.78 331.87 270.71 330.1 269 328.9L266.39 330.94ZM310.82 326.29V332.53C310.82 335.44 311.39 336.46 314.03 336.46C314.51 336.46 315.62 336.46 316.16 336.46C318.2 336.46 319.04 335.41 319.34 331.33C318.47 331.12 317.06 330.61 316.46 330.07C316.37 333.04 316.28 333.43 315.77 333.43C315.56 333.43 314.78 333.43 314.6 333.43C314.15 333.43 314.09 333.31 314.09 332.5V326.29H310.82ZM307.25 317.5H313.82V319.51H307.25V317.5ZM307.25 322.21H313.82V324.22H307.25V322.21ZM307.25 312.85H313.82V314.83H307.25V312.85ZM303.95 310V327.07H317.27V310H303.95ZM305.99 326.26C305.63 329.71 304.91 332.38 300.53 333.91C301.25 334.57 302.21 335.86 302.57 336.7C307.82 334.57 308.99 330.94 309.41 326.26H305.99ZM291.47 314.08V317.32H300.65V314.08H291.47ZM295.37 324.31V336.73H298.88V320.11L295.37 324.31ZM295.37 308.56V315.61H298.88V308.56H295.37ZM298.82 320.77L296.78 322.6C298.04 323.89 300.41 326.65 301.49 328.24L303.68 325.24C302.93 324.49 299.78 321.52 298.82 320.77ZM299.42 314.08V314.74C297.92 319.15 294.2 323.56 290.36 325.78C290.87 326.47 291.74 328.24 292.04 329.2C296.3 326.38 300.59 321.1 302.72 315.25L300.74 313.96L300.11 314.08H299.42ZM332.6 309.7V313.12H344.24V309.7H332.6ZM332.27 319.78V323.14H341.78V319.78H332.27ZM335.54 311.98V319.54C335.54 324.34 335.09 329.95 330.8 334.18C331.64 334.72 332.87 335.95 333.44 336.73C338.42 331.87 338.96 325.27 338.96 319.57V311.98H335.54ZM342.38 309.7C342.41 322.45 342.17 335.11 345.77 336.46C347.69 337.3 349.28 336.28 349.76 331.57C349.25 331.03 348.35 329.59 347.78 328.66C347.72 330.73 347.51 332.83 347.33 332.77C345.89 332.35 345.77 319.93 346.07 309.7H342.38ZM322.31 317.74V320.44H331.37V317.74H322.31ZM322.4 309.46V312.19H331.28V309.46H322.4ZM322.31 321.82V324.55H331.37V321.82H322.31ZM320.87 313.51V316.36H332.36V313.51H320.87ZM323.87 325.99V328.84H328.34V332.26H323.87V335.11H331.4V325.99H323.87ZM322.25 325.99V336.31H325.28V325.99H322.25ZM361.76 315.25H367.94V316.45H361.76V315.25ZM358.91 313.45V318.25H370.97V313.45H358.91ZM360.62 323.95H369.11V329.71H360.62V323.95ZM357.89 322V331.69H372.02V322H357.89ZM363.77 326.32H365.9V327.34H363.77V326.32ZM361.85 324.82V328.84H367.97V324.82H361.85ZM356.48 319.15V321.1H373.55V319.15H356.48ZM363.32 317.08V320.02H366.35V317.08H363.32ZM352.13 309.55V336.7H355.49V312.49H374.45V336.7H377.96V309.55H352.13ZM354.26 332.68V335.65H376.22V332.68H354.26Z" fill="#DA615C"/>
</g>
</g>
<defs>
<filter id="filter0_d_49_1747" x="113" y="108" width="430" height="806" filterUnits="userSpaceOnUse" color-interpolation-filters="sRGB">
<feFlood flood-opacity="0" result="BackgroundImageFix"/>
<feColorMatrix in="SourceAlpha" type="matrix" values="0 0 0 0 0 0 0 0 0 0 0 0 0 0 0 0 0 0 127 0" result="hardAlpha"/>
<feOffset dx="8" dy="8"/>
<feGaussianBlur stdDeviation="10"/>
<feComposite in2="hardAlpha" operator="out"/>
<feColorMatrix type="matrix" values="0 0 0 0 0 0 0 0 0 0 0 0 0 0 0 0 0 0 0.05 0"/>
<feBlend mode="normal" in2="BackgroundImageFix" result="effect1_dropShadow_49_1747"/>
<feBlend mode="normal" in="SourceGraphic" in2="effect1_dropShadow_49_1747" result="shape"/>
</filter>
</defs>
</svg>
